<svg xmlns="http://www.w3.org/2000/svg" xmlns:xlink="http://www.w3.org/1999/xlink" width="500" zoomAndPan="magnify" viewBox="0 0 375 374.999991" height="500" preserveAspectRatio="xMidYMid meet" version="1.0"><defs><clipPath id="bc811f2afc"><path d="M 187.5 0 C 83.945312 0 0 83.945312 0 187.5 C 0 291.054688 83.945312 375 187.5 375 C 291.054688 375 375 291.054688 375 187.5 C 375 83.945312 291.054688 0 187.5 0 Z M 187.5 0 " clip-rule="nonzero"/></clipPath><clipPath id="306e9b4038"><path d="M 74.09375 77.871094 L 124.746094 77.871094 L 124.746094 128.527344 L 74.09375 128.527344 Z M 74.09375 77.871094 " clip-rule="nonzero"/></clipPath><clipPath id="9d063a38f2"><path d="M 99.421875 77.871094 C 85.433594 77.871094 74.09375 89.210938 74.09375 103.199219 C 74.09375 117.1875 85.433594 128.527344 99.421875 128.527344 C 113.410156 128.527344 124.746094 117.1875 124.746094 103.199219 C 124.746094 89.210938 113.410156 77.871094 99.421875 77.871094 Z M 99.421875 77.871094 " clip-rule="nonzero"/></clipPath></defs><g clip-path="url(#bc811f2afc)"><rect x="-37.5" width="450" fill="#ffffff" y="-37.499999" height="449.999989" fill-opacity="1"/></g><path fill="#000000" d="M 187.5 0 C 83.945312 0 0 83.945312 0 187.5 C 0 291.054688 83.945312 375 187.5 375 C 291.054688 375 375 291.054688 375 187.5 C 375 83.945312 291.054688 0 187.5 0 Z M 121.535156 262.117188 C 121.535156 267.046875 117.539062 271.042969 112.609375 271.042969 L 85.832031 271.042969 C 80.902344 271.042969 76.902344 267.046875 76.902344 262.117188 L 76.902344 150.535156 C 76.902344 145.605469 80.902344 141.609375 85.832031 141.609375 L 112.609375 141.609375 C 117.539062 141.609375 121.535156 145.605469 121.535156 150.535156 Z M 304.652344 171.335938 L 283.863281 251.023438 C 280.785156 262.8125 270.136719 271.042969 257.953125 271.042969 L 184.019531 271.042969 C 164.300781 271.042969 148.316406 255.054688 148.316406 235.335938 L 148.316406 156.398438 C 148.316406 146.929688 152.078125 137.847656 158.773438 131.152344 L 210.667969 79.257812 C 213.613281 76.3125 217.601562 74.660156 221.761719 74.660156 C 233.605469 74.660156 241.175781 87.28125 235.601562 97.730469 L 219.34375 128.21875 C 216.109375 134.285156 220.503906 141.609375 227.375 141.609375 L 281.6875 141.609375 C 294.792969 141.609375 305.421875 152.234375 305.421875 165.34375 C 305.417969 167.363281 305.160156 169.378906 304.652344 171.335938 Z M 304.652344 171.335938 " fill-opacity="1" fill-rule="nonzero"/><g clip-path="url(#306e9b4038)"><g clip-path="url(#9d063a38f2)"><path fill="#ffffff" d="M 74.09375 77.871094 L 124.746094 77.871094 L 124.746094 128.527344 L 74.09375 128.527344 Z M 74.09375 77.871094 " fill-opacity="1" fill-rule="nonzero"/></g></g></svg>